<svg xmlns="http://www.w3.org/2000/svg" width="27.173" height="29.644" viewBox="0 0 27.173 29.644">
  <g id="Group_794" data-name="Group 794" transform="translate(-1074.001 -608)">
    <path id="Path_27292" data-name="Path 27292" d="M17494.5-10203.884l.283-2.836,1.209-1.354.654-1.605,1.475-.3v-.433l.852.433,2.27-.433,1.029.737.225.726.451.88.924,1.354.5,1.665v1.171h-9.867Z" transform="translate(-16418.934 10832.917)" fill="#ff6498"/>
    <path id="Path_27293" data-name="Path 27293" d="M17495.5-10203.542v-3.178l.5-1.354.654-1.605,1.475-.3v-.433l.852.433,2.27-.433,1.029.737.225.726.451.88.924,1.354-.924,1.128v1.708h-5.252Z" transform="translate(-16403.934 10832.917)" fill="#a5dede"/>
    <g id="Group_793" data-name="Group 793" transform="translate(-19957.826 9927)">
      <path id="Path_27290" data-name="Path 27290" d="M105,25.53v.865a.494.494,0,0,0,.791.4l1.976-1.482-.593-.791-1.183.887a2.6,2.6,0,0,1,1.211-2.067c.008.026.022.05.031.076a4.473,4.473,0,0,0,.195.476c.017.036.037.07.056.105a4.444,4.444,0,0,0,.253.431c.027.04.056.078.084.117a4.422,4.422,0,0,0,.292.366c.041.046.084.089.127.133.1.1.2.2.311.292.024.02.044.045.069.064l0-.006a4.45,4.45,0,0,0,.772.509h-1.674a1.489,1.489,0,0,0-1.425,1.075l-.784,2.742a.495.495,0,0,0,.475.63v1.92l-.523,2.257a1.525,1.525,0,0,0,.866,1.952l-.8,2.092a.494.494,0,0,0,.462.671h1.976v5.435a.484.484,0,0,0,.031.152,1.962,1.962,0,0,0-.525,1.33v.494a.494.494,0,0,0,.494.494h2.964a.494.494,0,0,1,.988,0h2.964a.494.494,0,0,0,.494-.494v-.494a1.962,1.962,0,0,0-.525-1.33.484.484,0,0,0,.031-.152V39.24h1.976a.494.494,0,0,0,.461-.672l-.8-2.092a1.525,1.525,0,0,0,.866-1.952l-.522-2.257v-1.92a.493.493,0,0,0,.475-.629l-.784-2.742a1.489,1.489,0,0,0-1.425-1.075h-1.675a4.456,4.456,0,0,0,.772-.509l0,.006c.025-.02.045-.044.069-.064.109-.092.212-.19.311-.292.043-.044.086-.087.127-.133a4.411,4.411,0,0,0,.292-.366c.028-.039.058-.077.084-.117a4.4,4.4,0,0,0,.253-.431c.018-.035.039-.069.056-.105a4.523,4.523,0,0,0,.195-.476c.009-.026.022-.05.031-.076a2.6,2.6,0,0,1,1.211,2.067l-1.183-.888-.593.791,1.976,1.482a.49.49,0,0,0,.3.1.493.493,0,0,0,.494-.494V25.53a3.584,3.584,0,0,0-2-3.2c.011-.127.027-.252.027-.38a4.447,4.447,0,1,0-8.893,0c0,.128.016.254.027.38a3.584,3.584,0,0,0-2,3.2Zm5.435,1.775a2.588,2.588,0,0,0,1.976,0v1.56h-1.976Zm-3.188-.058a.5.5,0,0,1,.475-.358h.243v2.47h-1.321Zm-.1,7.119-.46,1.2a.553.553,0,0,1-.286-.709.5.5,0,0,0,.023-.072l.543-2.346a.52.52,0,0,0,.012-.111V30.347h.988v1.884Zm2.8,9.815h-.988V39.241h.988Zm-1.482,1.976a.988.988,0,0,1,1.976,0Zm2.964,0a1.963,1.963,0,0,0-.525-1.33.484.484,0,0,0,.031-.152V39.241h.988v5.435a.484.484,0,0,0,.031.152A1.962,1.962,0,0,0,111.422,46.158Zm.988,0a.988.988,0,1,1,1.976,0Zm1.482-1.976H112.9V39.241h.988Zm.494-5.929h-7.68l.762-1.982h0l.6-1.549.733-1.9h5.25l.732,1.9.6,1.549h0l.762,1.982Zm1.495-5.817.543,2.346a.5.5,0,0,0,.023.072.551.551,0,0,1-.286.708l-.3-.768-.164-.427-.821-2.136V30.348h.988v1.976a.531.531,0,0,0,.012.112Zm-.283-5.188.6,2.112H114.88v-2.47h.243a.5.5,0,0,1,.475.358Zm-1.705,4.582h-4.941V26.889h.494v2.47a.494.494,0,0,0,.494.494H112.9a.494.494,0,0,0,.494-.494v-2.47h.494Zm-1.174-6.677a.5.5,0,0,0-.308.458v.553a1.6,1.6,0,0,1-1.976,0v-.553a.494.494,0,0,0-.308-.458,3.483,3.483,0,0,1-.884-.521h0a3.443,3.443,0,0,1-.427-.417c-.018-.021-.034-.043-.051-.065a3.5,3.5,0,0,1-.294-.412c-.019-.031-.036-.062-.054-.094a3.482,3.482,0,0,1-.212-.449c-.011-.029-.024-.058-.034-.087a3.382,3.382,0,0,1-.148-.551c-.007-.038-.016-.076-.022-.114h1.879a3,3,0,0,0,2.139-.886l.7-.7a3.015,3.015,0,0,0,2.132,1.531c-.007.056-.016.111-.026.165a3.473,3.473,0,0,1-.148.551c-.01.03-.023.059-.035.088a3.421,3.421,0,0,1-.212.448c-.018.032-.035.063-.054.094a3.465,3.465,0,0,1-.293.412c-.018.021-.033.045-.051.065a3.423,3.423,0,0,1-.427.416h0a3.468,3.468,0,0,1-.884.521Zm-1.3-6.663a3.462,3.462,0,0,1,3.407,2.883A2.029,2.029,0,0,1,113.4,19.91l-.015-.059a.494.494,0,0,0-.828-.228l-1.235,1.235a2.053,2.053,0,0,1-1.441.6H108a3.461,3.461,0,0,1,3.419-2.964Z" transform="translate(20926.828 -9336.501)"/>
      <path id="Path_27291" data-name="Path 27291" d="M378.472,25.9a1.489,1.489,0,0,0-1.425,1.075l-.784,2.742a.494.494,0,0,0,.475.629v1.941l-.21,1.468a2.184,2.184,0,0,0,1.587,2.427l-.383,2.489a.492.492,0,0,0,.488.569h.494v5.435a.484.484,0,0,0,.031.152,1.962,1.962,0,0,0-.525,1.33v.494a.494.494,0,0,0,.494.494h2.964a.494.494,0,0,1,.988,0h2.964a.494.494,0,0,0,.494-.494v-.494a1.963,1.963,0,0,0-.525-1.33.483.483,0,0,0,.031-.152V39.238h.494a.494.494,0,0,0,.488-.57l-.383-2.489a2.184,2.184,0,0,0,1.587-2.427l-.21-1.466V30.345a.493.493,0,0,0,.475-.629l-.784-2.742a1.489,1.489,0,0,0-1.425-1.075h-1.667a4.447,4.447,0,1,0-4.069,0Zm3.7,1.687,1.133,1.133a.494.494,0,0,0,.624.062l.714-.476v3.524h-1.976V28.369h-.988v3.458H379.7V28.3l.714.476a.493.493,0,0,0,.624-.062Zm2.964,10.665h-2.47V35.286h-.988V38.25H378.8l.836-5.435h5.081l.836,5.435ZM378,27.245a.5.5,0,0,1,.475-.358h.243v2.47h-1.321Zm-.2,7.62a1.22,1.22,0,0,1-.286-.972l.215-1.5a.53.53,0,0,0,0-.07V30.345h.988v1.939l-.448,2.911a1.224,1.224,0,0,1-.473-.33Zm2.9,4.373v4.941H379.7V39.238Zm-1.482,6.917a.988.988,0,0,1,1.976,0Zm2.964,0a1.963,1.963,0,0,0-.525-1.33.483.483,0,0,0,.031-.152V39.238h.988v5.435a.484.484,0,0,0,.031.152A1.962,1.962,0,0,0,382.173,46.155Zm.988,0a.988.988,0,0,1,1.976,0Zm1.482-1.976h-.988V39.238h.988Zm1.981-11.788.215,1.5a1.2,1.2,0,0,1-.76,1.3l-.448-2.911V30.345h.988v1.976A.5.5,0,0,0,386.624,32.391Zm-.276-5.147.6,2.112h-1.321v-2.47h.243a.5.5,0,0,1,.475.358Zm-1.705-.358v.23l-.926.617-.63-.63.647-.216Zm-2.47-8.4a3.462,3.462,0,0,1,3.407,2.883,2.029,2.029,0,0,1-1.431-1.464l-.015-.059a.494.494,0,0,0-.828-.228l-1.235,1.235a2.053,2.053,0,0,1-1.441.6h-1.877a3.461,3.461,0,0,1,3.419-2.964Zm-3.421,3.953h1.879a3,3,0,0,0,2.139-.886l.7-.7a3.015,3.015,0,0,0,2.132,1.531,3.441,3.441,0,0,1-2.129,2.762.5.5,0,0,0-.308.458v.428l-.988.33-.988-.33v-.428a.494.494,0,0,0-.308-.458,3.442,3.442,0,0,1-2.125-2.711Zm1.86,4.447.647.216-.63.63-.925-.616v-.23Z" transform="translate(20670.898 -9336.499)"/>
    </g>
  </g>
</svg>
